HIERARCHY
ROOT Hips
{
	OFFSET 0.00000 0.00000 0.00000
	CHANNELS 6 Xposition Yposition Zposition Zrotation Yrotation Xrotation 
	JOINT LHipJoint
	{
		OFFSET 0 0 0
		CHANNELS 3 Zrotation Yrotation Xrotation
		JOINT LeftHip
		{
			OFFSET 1.46561 -1.72757 0.83774
			CHANNELS 3 Zrotation Yrotation Xrotation
			JOINT LeftKnee
			{
				OFFSET 2.48915 -6.83890 0.00000
				CHANNELS 3 Zrotation Yrotation Xrotation
				JOINT LeftAnkle
				{
					OFFSET 2.60555 -7.15868 0.00000
					CHANNELS 3 Zrotation Yrotation Xrotation
					JOINT LeftToe
					{
						OFFSET 0.19248 -0.52884 2.26738
						CHANNELS 3 Zrotation Yrotation Xrotation
						End Site
						{
							OFFSET 0.00000 -0.00000 1.17015
						}
					}
				}
			}
		}
	}
	JOINT RHipJoint
	{
		OFFSET 0 0 0
		CHANNELS 3 Zrotation Yrotation Xrotation
		JOINT RightHip
		{
			OFFSET -1.46918 -1.72757 0.83774
			CHANNELS 3 Zrotation Yrotation Xrotation
			JOINT RightKnee
			{
				OFFSET -2.49034 -6.84216 0.00000
				CHANNELS 3 Zrotation Yrotation Xrotation
				JOINT RightAnkle
				{
					OFFSET -2.65971 -7.30750 0.00000
					CHANNELS 3 Zrotation Yrotation Xrotation
					JOINT RightToe
					{
						OFFSET -0.19227 -0.52827 2.30785
						CHANNELS 3 Zrotation Yrotation Xrotation
						End Site
						{
							OFFSET -0.00000 -0.00000 1.18972
						}
					}
				}
			}
		}
	}
	JOINT lowerback
	{
		OFFSET 0 0 0
		CHANNELS 3 Zrotation Yrotation Xrotation
		JOINT Chest
		{
			OFFSET 0.02432 2.19909 -0.28000
			CHANNELS 3 Zrotation Yrotation Xrotation
			JOINT Chest2
			{
				OFFSET 0.03714 2.21816 -0.15261
				CHANNELS 3 Zrotation Yrotation Xrotation
				JOINT lowerneck
				{
					OFFSET 0 0 0
					CHANNELS 3 Zrotation Yrotation Xrotation
					JOINT Neck
					{
						OFFSET -0.01896 1.56165 0.21681
						CHANNELS 3 Zrotation Yrotation Xrotation
						JOINT Head
						{
							OFFSET 0.02744 1.56009 0.06764
							CHANNELS 3 Zrotation Yrotation Xrotation
							End Site
							{
								OFFSET 0.01212 1.60574 0.00298
							}
						}
					}
				}
				JOINT LeftCollar
				{
					OFFSET 0 0 0
					CHANNELS 3 Zrotation Yrotation Xrotation
					JOINT LeftShoulder
					{
						OFFSET 3.05595 1.48048 -0.60794
CHANNELS 3 Zrotation Xrotation Yrotation
						JOINT LeftElbow
						{
OFFSET 0 -5.206070 -0.000000
CHANNELS 3 Zrotation Xrotation Yrotation
							JOINT LeftWrist
							{
OFFSET 0 -3.399610 0.000000
CHANNELS 3 Zrotation Xrotation Yrotation
								JOINT lhand
								{
									OFFSET 0 0 0
CHANNELS 3 Zrotation Xrotation Yrotation
									JOINT LFingers
									{
OFFSET 0 -0.519690 0.000000
CHANNELS 3 Zrotation Xrotation Yrotation
										End Site
										{
OFFSET 0 -0.418990 0.000000
										}
									}
								}
								JOINT LThumb
								{
OFFSET 0 0.000000 0.000000
CHANNELS 3 Zrotation Xrotation Yrotation
									End Site
									{
OFFSET 0 -0.425390 0.425390
									}
								}
							}
						}
					}
				}
				JOINT RightCollar
				{
					OFFSET 0 0 0
					CHANNELS 3 Zrotation Yrotation Xrotation
					JOINT RightShoulder
					{
						OFFSET -2.99052 1.57608 -0.69102
CHANNELS 3 Zrotation Xrotation Yrotation
						JOINT RightElbow
						{
OFFSET 0 -5.322140 0.000000
CHANNELS 3 Zrotation Xrotation Yrotation
							JOINT RightWrist
							{
OFFSET 0 -3.512080 0.000000
CHANNELS 3 Zrotation Xrotation Yrotation
								JOINT rhand
								{
									OFFSET 0 0 0
CHANNELS 3 Zrotation Xrotation Yrotation
									JOINT RFingers
									{
OFFSET 0 -0.586680 0.000000
CHANNELS 3 Zrotation Xrotation Yrotation
										End Site
										{
OFFSET 0 -0.473000 0.000000
										}
									}
								}
								JOINT RThumb
								{
OFFSET 0 0.000000 0.000000
CHANNELS 3 Zrotation Xrotation Yrotation
									End Site
									{
OFFSET 0 -0.480220 0.480220
									}
								}
							}
						}
					}
				}
			}
		}
	}
}
MOTION
Frames: 7
Frame Time: .0083333
0.4254 17.6131 -13.8641 -1.2404 -2.4823 7.2579 0.0000 0.0000 0.0000 -18.9477 2.4361 -14.3776 1.0305 6.4572 18.1170 0.4040 1.7120 -12.7522 0.0318 1.1506 3.1634 0.0000 0.0000 0.0000 18.2675 3.4563 -14.7812 -1.4578 -7.6313 21.5996 -0.5733 2.1954 -13.7184 -0.2010 -2.8871 7.9645 -0.2367 -0.2623 0.3177 1.3931 -0.4107 5.4403 1.5577 -0.2540 5.4580 -1.2173 1.0213 -11.4436 -0.8708 2.1214 35.9968 0.1795 0.6208 14.2229 0.0000 0.0000 0.0000 2.3902 -6.1724 -35.6198 12.5185 -20.5776 2.2813 26.8256 -14.6827 3.3123 0.0 0.0 0.0 -7.1250 0.0 0.0 0.1616 26.2691 0.0734 0.0000 0.0000 0.0000 -2.4276 -4.1204 14.3999 -14.5500 -23.5155 -3.0441 -20.2415 35.1535 23.628 0.0 0.0 0.0 7.1250 0.0 -0.0 9.5736 54.7227 -2.3022
0.4246 17.6129 -13.8645 -1.2274 -2.4873 7.2464 0.0000 0.0000 0.0000 -18.9592 2.4347 -14.3646 1.0304 6.4568 18.1157 0.4035 1.7242 -12.7512 0.0310 1.1357 3.1224 0.0000 0.0000 0.0000 18.2563 3.4537 -14.7616 -1.4562 -7.6274 21.5878 -0.5729 2.1972 -13.7130 -0.2018 -2.8924 7.9794 -0.2387 -0.2472 0.3119 1.3808 -0.3899 5.4360 1.5470 -0.2434 5.4560 -1.1865 1.0178 -11.4220 -0.8849 2.1133 36.0144 0.1670 0.6196 14.2267 0.0000 -0.0000 0.0000 2.3933 -6.1647 -35.6737 12.5102 -20.5654 2.2783 26.8629 -14.6617 3.2374 0.0 0.0 0.0 -7.1250 0.0 0.0 0.1917 26.3516 0.0867 0.0000 -0.0000 0.0000 -2.4138 -4.0985 14.3726 -14.5511 -23.517 -3.0445 -20.2088 35.1306 23.6138 0.0 0.0 0.0 7.1250 0.0 -0.0 9.6014 54.7019 -2.3042
0.4239 17.6129 -13.8650 -1.2356 -2.4673 7.2414 0.0000 0.0000 0.0000 -18.9471 2.4312 -14.3587 1.0301 6.4559 18.1131 0.4047 1.7106 -12.7627 0.0309 1.1356 3.1220 0.0000 0.0000 0.0000 18.2693 3.4494 -14.7537 -1.4564 -7.6277 21.5888 -0.5739 2.1896 -13.7277 -0.2044 -2.9109 8.0309 -0.2361 -0.2488 0.3032 1.3900 -0.3926 5.4383 1.5549 -0.2449 5.4636 -1.1999 1.0213 -11.4398 -0.8677 2.1168 36.0274 0.1771 0.6214 14.2363 0.0000 -0.0000 0.0000 2.3604 -6.1809 -35.6366 12.5029 -20.5546 2.2758 26.8906 -14.6787 3.3837 0.0 0.0 0.0 -7.1250 0.0 0.0 0.2092 26.187 0.0954 0.0000 -0.0000 0.0000 -2.4209 -4.1095 14.3822 -14.5467 -23.5108 -3.0428 -20.204 35.151 23.6447 0.0 0.0 0.0 7.1250 0.0 -0.0 9.6191 54.7323 -2.3156
0.4232 17.6129 -13.8662 -1.2281 -2.4749 7.2329 0.0000 0.0000 0.0000 -18.9534 2.4348 -14.3531 1.0298 6.4550 18.1105 0.4044 1.7128 -12.7588 0.0315 1.1459 3.1503 0.0000 0.0000 0.0000 18.2628 3.4509 -14.7506 -1.4564 -7.6279 21.5894 -0.5738 2.1931 -13.7256 -0.2033 -2.9031 8.0092 -0.2444 -0.2427 0.3150 1.3869 -0.3840 5.4386 1.5568 -0.2409 5.4570 -1.1985 1.0206 -11.4466 -0.8684 2.1161 36.0273 0.1765 0.6213 14.2378 -0.0000 -0.0000 0.0000 2.3549 -6.1861 -35.6408 12.5073 -20.5611 2.2773 26.8616 -14.6694 3.3542 0.0 0.0 0.0 -7.1250 0.0 0.0 0.1879 26.221 0.0856 -0.0000 -0.0000 0.0000 -2.4149 -4.1234 14.3684 -14.5401 -23.5015 -3.0402 -20.2358 35.1689 23.5884 0.0 0.0 0.0 7.1250 0.0 -0.0 9.5629 54.6812 -2.29
0.4224 17.6129 -13.8670 -1.2273 -2.4719 7.2259 0.0000 0.0000 0.0000 -18.9510 2.4322 -14.3478 1.0298 6.4549 18.1102 0.4045 1.7126 -12.7597 0.0316 1.1475 3.1548 0.0000 0.0000 0.0000 18.2648 3.4528 -14.7448 -1.4568 -7.6288 21.5921 -0.5741 2.1894 -13.7297 -0.2032 -2.9028 8.0083 -0.2443 -0.2379 0.3169 1.3862 -0.3776 5.4387 1.5563 -0.2376 5.4557 -1.1963 1.0206 -11.4510 -0.8657 2.1149 36.0325 0.1771 0.6214 14.2412 0.0000 0.0000 0.0000 2.3453 -6.192 -35.6478 12.5088 -20.5634 2.2779 26.8674 -14.6807 3.3666 0.0 0.0 0.0 -7.1250 0.0 0.0 0.1920 26.2068 0.0875 0.0000 0.0000 0.0000 -2.4096 -4.1301 14.3629 -14.5368 -23.4969 -3.0389 -20.2473 35.1803 23.5754 0.0 0.0 0.0 7.1250 0.0 -0.0 9.5458 54.6702 -2.2832
0.4217 17.6128 -13.8680 -1.2277 -2.4678 7.2192 0.0000 0.0000 0.0000 -18.9474 2.4299 -14.3417 1.0295 6.4539 18.1074 0.4044 1.7114 -12.7579 0.0317 1.1491 3.1592 0.0000 0.0000 0.0000 18.2678 3.4541 -14.7420 -1.4578 -7.6312 21.5994 -0.5746 2.1867 -13.7361 -0.2029 -2.9005 8.0018 -0.2419 -0.2338 0.3204 1.3854 -0.3721 5.4386 1.5544 -0.2348 5.4535 -1.1947 1.0200 -11.4552 -0.8626 2.1129 36.0361 0.1778 0.6212 14.2438 0.0000 0.0000 0.0000 2.3377 -6.197 -35.6559 12.5124 -20.5687 2.2791 26.8761 -14.7035 3.3846 0.0 0.0 0.0 -7.1250 0.0 0.0 0.1982 26.1863 0.0904 0.0000 0.0000 0.0000 -2.4028 -4.1376 14.359 -14.5335 -23.4923 -3.0375 -20.2613 35.1902 23.5622 0.0 0.0 0.0 7.1250 0.0 -0.0 9.5258 54.6594 -2.2759
0.4210 17.6128 -13.8689 -1.2293 -2.4616 7.2115 0.0000 0.0000 0.0000 -18.9417 2.4264 -14.3364 1.0295 6.4540 18.1076 0.4042 1.7096 -12.7541 0.0316 1.1479 3.1558 0.0000 0.0000 0.0000 18.2727 3.4541 -14.7367 -1.4583 -7.6326 21.6035 -0.5749 2.1811 -13.7413 -0.2024 -2.8968 7.9916 -0.2370 -0.2305 0.3260 1.3844 -0.3677 5.4380 1.5508 -0.2323 5.4494 -1.1927 1.0194 -11.4546 -0.8598 2.1108 36.0369 0.1783 0.6210 14.2440 -0.0000 -0.0000 0.0000 2.3318 -6.2001 -35.6655 12.5176 -20.5764 2.281 26.8849 -14.7269 3.3909 0.0 0.0 0.0 -7.1250 0.0 0.0 0.2047 26.1791 0.0934 -0.0000 -0.0000 0.0000 -2.3947 -4.1438 14.3556 -14.5308 -23.4884 -3.0365 -20.2757 35.1988 23.5549 0.0 0.0 0.0 7.1250 0.0 -0.0 9.5080 54.6548 -2.2705
